# xmcd
#
# Track frame offsets:
#  150
#  19405
#  36373
#  53758
#  70894
#  88195
#  104206
#  120403
#
# Disc length: 1810 seconds
#
# Revision: 0
# Processed by: cddbd v1.5.1PL2 Copyright (c) Steve Scherf et al.
# Submitted via: Collectorz.com Music Collector 6.9
#
DISCID=70071008
DTITLE=Angela Rose - Be Strong
DYEAR=2002
DGENRE=Ballad - Country
TTITLE0=Angelo Rose - Feels Like Home
TTITLE1=Watching Over Me
TTITLE2=Some Days
TTITLE3=Be Strong
TTITLE4=I Did
TTITLE5=That's The Way It Is
TTITLE6=Second Chance
TTITLE7=There's A Hero
EXTD=
EXTT0=
EXTT1=
EXTT2=
EXTT3=
EXTT4=
EXTT5=
EXTT6=
EXTT7=
PLAYORDER=
